<?xml version="1.0" encoding="utf-8"?>
<!-- Generator: Adobe Illustrator 24.3.0, SVG Export Plug-In . SVG Version: 6.00 Build 0)  -->
<svg version="1.1" id="Layer_1" xmlns="http://www.w3.org/2000/svg" xmlns:xlink="http://www.w3.org/1999/xlink" x="0px" y="0px"
	 viewBox="0 0 595.28 841.89" style="enable-background:new 0 0 595.28 841.89;" xml:space="preserve">
<style type="text/css">
	.st0{fill:#8B5E3C;}
</style>
<path class="st0" d="M293.32,240.6l-0.01,0.02c-0.03-0.02-0.05-0.04-0.08-0.04C293.25,240.58,293.28,240.58,293.32,240.6z"/>
<path class="st0" d="M287.89,240.37v0.02c-0.01,0-0.01-0.02-0.03-0.02C287.87,240.37,287.87,240.37,287.89,240.37z"/>
<path class="st0" d="M368.19,386.19c29.98-23.28,48.83-56.38,48.83-93.12c0-3.64,0-6.91-0.86-10.19v-0.36c0-4-0.86-7.64-1.71-11.28
	c0-0.36,0-0.73-0.43-1.09c0.43-0.73,0.43-1.46,0.43-2.18c0-20.01-49.68-37.47-116.5-41.83c46.69,4.36,83.09,16.73,91.23,31.65
	c0.86,1.45,1.29,2.91,1.29,4.36c0.43,0.73,0.43,1.45,0.43,2.18c0,1.09,0,2.55-0.85,4c0,0.73-0.43,1.09-0.86,1.82
	c-8.57,19.28-61.67,33.83-125.06,33.83c-64.24,0-117.35-14.91-125.49-34.19v-0.36c-0.43-0.36-0.86-1.09-0.86-1.45
	c-0.43-1.09-0.86-2.18-0.86-3.64c0-0.36,0-1.09,0.43-1.45c0-0.36,0-0.36,0-0.73c0-1.09,0.43-2.55,1.29-4
	c7.71-15.28,43.68-27.65,91.23-32.01c-66.82,4.36-116.5,21.82-116.5,41.83c0,0.73,0,1.45,0.43,2.18c-0.43,0.36-0.43,0.73-0.43,1.09
	c-0.86,3.64-1.71,7.28-1.71,11.28v0.36c-0.86,3.27-0.86,6.55-0.86,10.19c0,36.74,18.85,69.84,48.83,92.76
	c-50.97,6.91-84.38,19.28-84.38,32.37c0,1.46,0.86,3.27,1.71,5.09c3.42,5.09,11.13,10.19,23.56,14.55
	c32.98,11.64,93.37,19.64,163.61,19.64c69.81,0,130.63-8,163.18-19.64c12.42-4.36,20.56-9.46,23.56-14.55
	c1.28-1.82,1.71-3.64,1.71-5.09C452.57,405.1,419.16,393.1,368.19,386.19z M133.06,300.71c-0.43-1.45-0.43-2.91-0.43-4.36
	c0-2.18,0-4.36,0.43-6.55h0.43c26.13,12.73,74.52,21.46,130.63,21.46c55.68,0,104.08-8.73,130.2-21.46h0.43
	c0.43,2.18,0.43,4.36,0.43,6.55c0,1.45,0,2.91-0.43,4.36c-1.71,33.83-23.13,63.66-56.11,81.84c-0.43,0.36-0.86,0.36-1.29,0.73
	c5.14,0.73,9.85,1.45,14.56,2.18c-4.71-0.73-9.85-1.09-15.42-1.82c-0.43,0.36-0.86,0.73-1.29,1.09
	c-20.13,10.19-44.54,16.37-71.1,16.37s-51.4-6.55-71.95-17.46c-0.43,0-0.86-0.36-0.86-0.36c-0.43,0-0.43-0.36-0.86-0.36
	c-0.43,0-0.43,0-0.43,0s-0.43,0-0.43-0.36v-0.36C156.62,364.36,134.77,334.54,133.06,300.71z M366.05,387.64l-0.43,0.36
	c-0.86-0.36-1.71-0.73-2.57-0.73C363.91,387.28,364.77,387.28,366.05,387.64z M122.78,403.65c4.71-5.82,19.27-11.28,39.83-15.28
	c26.98,20.01,62.53,32.01,101.51,32.01c37.69,0,72.38-11.64,99.36-30.92c17.99,4,30.84,8.73,35.12,14.19
	c1.71,1.45,2.14,2.91,2.14,4.73c0,1.09-0.43,2.55-2.14,4c-9.42,13.82-67.67,24.01-137.48,24.01c-70.67,0-129.35-10.55-138.34-24.37
	c-1.29-1.45-1.71-2.55-1.71-3.64C121.07,406.56,121.5,405.47,122.78,403.65z M420.87,420.02c-10.71,17.82-77.09,30.92-156.75,30.92
	c-73.67,0-135.77-11.28-153.33-26.92c1.71,1.09,3.86,1.82,6.43,2.55c28.7,9.09,82.23,15.28,143.91,15.28
	c61.25,0,114.35-6.18,143.48-15.28c8.14-2.91,13.71-5.82,17.56-8.73C422.16,418.56,421.73,419.29,420.87,420.02z"/>
</svg>
